<svg width="27" height="34" viewBox="0 0 27 34" fill="none" xmlns="http://www.w3.org/2000/svg">
<path d="M18.4741 21.2761C19.3219 21.1065 20.0299 20.8969 20.5872 20.6411C20.9207 20.488 21.2091 20.313 21.4207 20.1048C21.6366 19.8925 21.8006 19.6156 21.8006 19.2799C21.8006 18.7872 21.4678 18.4289 21.0913 18.1817C20.8445 18.0198 20.5342 17.8742 20.1687 17.7415C21.2506 16.1115 21.8006 14.3648 21.8006 12.509C21.8006 9.93246 20.8038 8.37549 19.7761 6.90292C19.689 6.77813 19.5498 6.6998 19.3979 6.6901C19.246 6.6804 19.098 6.74038 18.9958 6.85308L15.6336 10.5581H14.223L18.5239 5.91158C18.6932 5.72869 18.7019 5.44907 18.5444 5.25594C17.6812 4.19742 16.802 3.29638 15.906 2.55662C15.4576 2.18645 15.0434 1.89579 14.6656 1.69559C14.2936 1.49849 13.9199 1.36914 13.5625 1.36914C13.205 1.36914 12.8313 1.49849 12.4593 1.69559C12.0815 1.89579 11.6673 2.18645 11.2189 2.55662C10.3229 3.29638 9.44375 4.19742 8.58049 5.25594C7.7079 6.32589 6.95188 7.52294 6.31141 8.84519C5.66677 10.1761 5.32437 11.401 5.32437 12.509C5.32437 14.3648 5.87437 16.1115 6.95619 17.7415C6.59077 17.8742 6.28041 18.0198 6.03367 18.1817C5.65708 18.4289 5.32437 18.7872 5.32437 19.2799C5.32437 19.6156 5.48833 19.8925 5.70423 20.1048C5.91583 20.313 6.20422 20.488 6.53771 20.6411C7.09498 20.8969 7.80306 21.1065 8.65087 21.2761C8.21994 22.8133 7.59009 24.0486 6.77473 24.9998C5.87873 26.0452 4.92007 26.518 3.88985 26.518C3.22843 26.518 2.64922 26.7656 2.17608 27.2387C1.70294 27.7118 1.45532 28.2911 1.45532 28.9525V30.887C1.45532 31.5632 1.69933 32.1517 2.18083 32.6206C2.65498 33.0822 3.23274 33.3215 3.88985 33.3215H23.2351C23.907 33.3215 24.4941 33.0857 24.964 32.6159C25.4338 32.146 25.6696 31.5589 25.6696 30.887V28.9525C25.6696 28.2954 25.4303 27.7176 24.9686 27.2435C24.4998 26.762 23.9113 26.518 23.2351 26.518C22.2049 26.518 21.2462 26.0452 20.3502 24.9998C19.5348 24.0486 18.905 22.8133 18.4741 21.2761Z" fill="#242424" stroke="black" stroke-linejoin="round"/>
<path d="M13.7211 3.17285C10.412 4.77729 6.76855 9.25344 6.76855 13.002C6.76855 14.6598 7.48394 16.6013 8.47328 17.78H11.3145C11.3145 17.78 9.24207 14.0697 9.37577 10.794C9.50948 7.51822 13.7211 3.17285 13.7211 3.17285Z" fill="#4F4F4F"/>
<path d="M6.83545 19.2659C6.83545 20.1891 10.8033 20.3875 13.7114 20.1891L13.6446 18.7383C11.4543 18.4073 6.83545 18.3427 6.83545 19.2659Z" fill="#4F4F4F"/>
<path d="M3.15869 29.9173C3.15869 28.8631 4.01326 28.0085 5.06742 28.0085H13.6544V31.826H5.06742C4.01326 31.826 3.15869 30.9714 3.15869 29.9173Z" fill="#4F4F4F"/>
<path d="M10.2717 20.8217C9.71017 24.4652 7.37036 26.8296 7.37036 26.8296L11.4551 26.8296C11.4551 26.8296 13.3002 23.9638 13.621 20.9555L10.2717 20.8217Z" fill="#4F4F4F"/>
</svg>
