<svg width="26" height="34" viewBox="0 0 26 34" fill="none" xmlns="http://www.w3.org/2000/svg">
<path d="M1.91097 32.2409C2.38084 32.7107 2.9679 32.9465 3.63985 32.9465H22.9851C23.657 32.9465 24.2441 32.7107 24.714 32.2409C25.1838 31.771 25.4196 31.1839 25.4196 30.512V28.5775C25.4196 27.9161 25.172 27.3368 24.6988 26.8637C24.2257 26.3906 23.6465 26.143 22.9851 26.143C21.6211 26.143 20.3939 25.3843 19.3121 23.6707C18.3005 22.0683 17.7479 20.004 17.6871 17.4485C18.4998 17.3781 19.2834 17.137 20.0345 16.7298C20.4725 16.4923 20.8331 16.2475 21.0905 15.9901C21.3435 15.7371 21.5506 15.4168 21.5506 15.0358C21.5506 14.5935 21.2725 14.2613 20.9526 14.0276C20.7623 13.8885 20.5283 13.7617 20.2573 13.6448C21.1175 12.3093 21.5506 10.8351 21.5506 9.23224C21.5506 6.9635 20.7421 5.01266 19.1371 3.40761C17.532 1.80256 15.5812 0.994141 13.3125 0.994141C11.0437 0.994141 9.09289 1.80256 7.48784 3.40761C5.88279 5.01266 5.07437 6.9635 5.07437 9.23224C5.07437 10.8351 5.50744 12.3093 6.36758 13.6448C6.0966 13.7617 5.86264 13.8885 5.67231 14.0276C5.35243 14.2613 5.07437 14.5935 5.07437 15.0358C5.07437 15.4168 5.28144 15.7371 5.53442 15.9901C5.79182 16.2475 6.15239 16.4923 6.59048 16.7298C7.34156 17.137 8.12517 17.3781 8.93779 17.4485C8.87703 20.004 8.32439 22.0683 7.31279 23.6707C6.23107 25.3843 5.00386 26.143 3.63985 26.143C2.9636 26.143 2.37511 26.387 1.90629 26.8685C1.44461 27.3426 1.20532 27.9204 1.20532 28.5775V30.512C1.20532 31.1839 1.4411 31.771 1.91097 32.2409Z" fill="#242424" stroke="black"/>
<path d="M13.3126 2.33423C9.56398 2.33423 6.52515 5.37306 6.52515 9.12164C6.52515 10.7794 7.11947 12.2984 8.10667 13.4771C8.10667 13.4771 7.45372 10.4703 8.86868 7.10974C10.2836 3.74919 13.3126 2.33423 13.3126 2.33423Z" fill="#4F4F4F"/>
<path d="M10.3509 16.964C10.77 22.9397 7.25562 26.2498 7.25562 26.2498L10.3509 26.2498C10.3509 26.2498 13.7317 22.9397 13.3126 16.964L10.3509 16.964Z" fill="#4F4F4F"/>
<path d="M6.45142 15.0798C6.45142 15.4844 9.98228 16.334 13.3126 16.003V14.5522C11.1271 14.2212 6.45142 14.6753 6.45142 15.0798Z" fill="#4F4F4F"/>
<path d="M2.94336 29.6092C2.94336 28.555 3.79793 27.7004 4.85209 27.7004H12.8287V31.5179H4.85209C3.79793 31.5179 2.94336 30.6633 2.94336 29.6092Z" fill="#4F4F4F"/>
<ellipse cx="19.5031" cy="9.18075" rx="0.773809" ry="1.59921" fill="#4A4A4A"/>
</svg>
