<svg width="28" height="34" viewBox="0 0 28 34" fill="none" xmlns="http://www.w3.org/2000/svg">
<path d="M4.0642 17.0469L4.06416 17.0469C3.64904 16.8493 3.30172 16.5294 3.06033 16.1313C2.81912 15.7334 2.69251 15.2723 2.69274 14.8036C2.69274 14.8035 2.69274 14.8034 2.69274 14.8033L2.69274 6.40142V6.40089H3.19274C3.1923 6.2077 3.22742 6.01631 3.2961 5.83768C3.36477 5.65904 3.46566 5.49666 3.59299 5.35981L4.0642 17.0469ZM4.0642 17.0469L6.38734 18.1529L6.38736 18.1529C6.67393 18.2894 6.98459 18.3635 7.30073 18.3699C7.61687 18.3763 7.93016 18.3148 8.22173 18.1899L8.22201 18.1898L8.95251 17.8763C9.28061 17.7357 9.5718 17.519 9.80593 17.245C10.04 16.9711 10.2114 16.6466 10.3097 16.2964L10.8368 14.4195C10.8388 14.4123 10.8407 14.4051 10.8424 14.3978C10.875 14.2579 10.935 14.1294 11.0165 14.0206C11.0979 13.9119 11.1983 13.826 11.3091 13.7667L11.3094 13.7665L11.8378 13.483V15.7296V15.7297C11.8379 16.1895 11.7183 16.6383 11.495 17.0253C11.2719 17.4121 10.9554 17.7199 10.5848 17.9184L10.5846 17.9186L7.31288 19.6731C6.46811 20.126 5.76257 20.8192 5.27155 21.6708C4.80564 22.4789 4.5491 23.4012 4.52441 24.3442C4.51856 24.353 4.51241 24.3622 4.50597 24.3717C4.44484 24.4625 4.35784 24.588 4.2549 24.7262C4.04171 25.0124 3.787 25.3161 3.56549 25.4943C3.37073 25.651 3.09158 25.7975 2.77314 25.9265C1.74589 26.3425 0.863037 27.2978 0.863037 28.5215V30.8215C0.863037 32.2022 1.98232 33.3215 3.36304 33.3215H24.9788C26.3595 33.3215 27.4788 32.2022 27.4788 30.8215V28.1398C27.4788 26.8528 26.5031 25.8891 25.4492 25.4654C25.1133 25.3303 24.8382 25.1714 24.6646 24.9972C24.4205 24.7524 24.2008 24.3067 24.0358 23.8639C23.957 23.6526 23.897 23.4595 23.8567 23.3193C23.8366 23.2495 23.8216 23.1933 23.8117 23.1554C23.8116 23.1549 23.8115 23.1545 23.8114 23.1541V13.6272C23.8114 6.89278 18.7068 1.36914 12.3378 1.36914H3.87888C3.55279 1.36914 3.24762 1.50819 3.02824 1.74316C2.81001 1.97689 2.69281 2.28697 2.69274 2.60373L4.0642 17.0469ZM2.84218 3.28006L3.5117 4.71422L3.19274 2.60402C3.19265 2.76518 3.22769 2.92413 3.29509 3.06822L2.84203 3.27972L2.84212 3.27993C2.84214 3.27997 2.84216 3.28001 2.84218 3.28006Z" fill="#242424" stroke="black" stroke-linejoin="round"/>
<path d="M2.76685 29.6495C2.76685 28.5953 3.62141 27.7407 4.67557 27.7407H14.0942V31.5582H4.67557C3.62141 31.5582 2.76685 30.7036 2.76685 29.6495Z" fill="#4F4F4F"/>
<path d="M6.04275 26.504C5.00655 20.9553 11.5432 19.3843 11.5432 19.3843C11.5432 19.3843 10.5178 22.047 10.3213 23.3285C10.0906 24.8327 10.4215 26.504 10.4215 26.504H6.04275Z" fill="#4F4F4F"/>
<path d="M7.17919 2.73828H4.104L4.90623 4.20902L7.17919 2.73828Z" fill="#4F4F4F"/>
<path d="M20.2153 8.78832C22.1064 13.3292 22.5552 22.6601 22.5552 22.6601C22.5552 22.6601 23.4577 15.7075 21.8866 9.75767C20.3156 3.80786 14.4995 3.03906 14.4995 3.03906C14.4995 3.03906 18.544 4.77523 20.2153 8.78832Z" fill="#4F4F4F"/>
<path d="M9.31836 11.6963C10.0712 11.0677 10.8006 11.183 11.5579 10.5598C12.6542 9.65776 13.4966 7.48462 13.4966 7.48462C13.4966 7.48462 13.7151 10.8417 12.2933 11.9637C11.6595 12.4638 11.0225 12.2668 10.388 12.7659C9.16665 13.7266 8.95068 16.4762 8.95068 16.4762L8.31559 17.0444L7.41309 17.0779C7.41309 17.0779 7.60706 13.1252 9.31836 11.6963Z" fill="#4F4F4F"/>
<path d="M4.30452 6.41509C4.61918 5.68537 5.67498 4.91092 5.67498 4.91092L8.78359 2.67139C8.78359 2.67139 6.2848 4.60962 5.87553 6.41509C5.66198 7.35716 5.87553 8.8886 5.87553 8.8886C5.87553 8.8886 5.43447 9.28972 5.09003 9.28972C4.74559 9.28972 4.30452 8.8886 4.30452 8.8886C4.30452 8.8886 3.92203 7.3021 4.30452 6.41509Z" fill="#4F4F4F"/>
</svg>
