<svg width="28" height="34" viewBox="0 0 28 34" fill="none" xmlns="http://www.w3.org/2000/svg">
<path d="M27.2133 7.45259C27.2661 7.24134 27.1761 7.02019 26.9908 6.90583C26.8055 6.79147 26.5675 6.81019 26.4023 6.95212L21.766 10.9364V3.68987C21.766 3.46523 21.6162 3.26817 21.3998 3.20809C21.1833 3.148 20.9534 3.23964 20.8376 3.43213L17.0259 9.76853L14.4595 1.71729C14.3934 1.50993 14.2008 1.36914 13.9831 1.36914C13.7655 1.36914 13.5728 1.50993 13.5068 1.71729L10.9404 9.76854L7.12867 3.43213C7.01288 3.23964 6.78293 3.148 6.56648 3.20809C6.35003 3.26817 6.20022 3.46523 6.20022 3.68987V10.9364L1.56392 6.95212C1.39877 6.81019 1.16075 6.79147 0.975445 6.90583C0.790136 7.02019 0.700152 7.24134 0.752966 7.45259L4.39442 22.0184L4.39439 22.0184L4.39596 22.0244C4.48372 22.3579 4.72184 22.622 4.99524 22.8312C5.27452 23.0449 5.64208 23.2409 6.07969 23.4249C6.81033 23.7321 7.68251 23.9619 8.68923 24.1203C8.2701 24.9247 7.76633 25.5517 7.18501 26.0154C6.46995 26.5858 5.70579 26.8593 4.87949 26.8593C4.24889 26.8593 3.69636 27.0957 3.24574 27.5463C2.79513 27.9969 2.55877 28.5495 2.55877 29.1801V31.0008C2.55877 31.645 2.79151 32.2066 3.25049 32.6535C3.70211 33.0932 4.25321 33.3215 4.87949 33.3215H23.0868C23.7267 33.3215 24.2868 33.0967 24.7348 32.6488C25.1827 32.2008 25.4075 31.6407 25.4075 31.0008V29.1801C25.4075 28.5538 25.1792 28.0027 24.7394 27.5511C24.2925 27.0921 23.731 26.8593 23.0868 26.8593C22.2605 26.8593 21.4963 26.5858 20.7813 26.0154C20.1991 25.5511 19.6947 24.9229 19.2752 24.1168C20.2563 23.9551 21.1208 23.716 21.8631 23.3943C22.3066 23.2022 22.6758 23.0061 22.9548 22.8024C23.2215 22.6078 23.4722 22.3586 23.5665 22.0382C23.5684 22.0317 23.5702 22.0251 23.5718 22.0184L27.2133 7.45259Z" fill="#242424" stroke="black" stroke-linecap="round" stroke-linejoin="round"/>
<path d="M4.24634 29.9034C4.24634 28.8492 5.10091 27.9946 6.15507 27.9946H14.0067V31.8121H6.15507C5.1009 31.8121 4.24634 30.9575 4.24634 29.9034Z" fill="#4F4F4F"/>
<path d="M10.7977 23.6293C9.99551 26.2031 8.32422 27.2166 8.32422 27.2166L12.409 27.2166C12.409 27.2166 13.2713 26.2365 14.0133 23.6293L10.7977 23.6293Z" fill="#4F4F4F"/>
<path d="M14.0068 22.2255V5.27856L11.433 13.4345L7.85645 7.95264L7.32163 13.9024L3.2771 10.8941L6.08488 21.5235C6.08488 21.5235 8.58574 22.093 10.1963 22.2255C11.6924 22.3486 14.0068 22.2255 14.0068 22.2255Z" fill="#4F4F4F"/>
</svg>
