<svg width="26" height="34" viewBox="0 0 26 34" fill="none" xmlns="http://www.w3.org/2000/svg">
<path d="M18.2002 21.5127C18.1585 21.4062 18.1228 21.3134 18.094 21.2376L23.7885 11.9563C23.8368 11.8776 23.8624 11.7871 23.8624 11.6948V9.73258C23.8624 9.45644 23.6385 9.23258 23.3624 9.23258H16.7031V8.25296C16.7031 7.97682 16.4792 7.75296 16.2031 7.75296H14.9535V6.57663H16.2031C16.4792 6.57663 16.7031 6.35277 16.7031 6.07663V3.90812C16.7031 3.63198 16.4792 3.40812 16.2031 3.40812H14.9535V1.86914C14.9535 1.593 14.7296 1.36914 14.4535 1.36914H11.9215C11.6453 1.36914 11.4215 1.593 11.4215 1.86914V3.40812H10.1718C9.89568 3.40812 9.67182 3.63198 9.67182 3.90812V6.07663C9.67182 6.35277 9.89568 6.57663 10.1718 6.57663H11.4215V7.75296H10.1718C9.89568 7.75296 9.67182 7.97682 9.67182 8.25296V9.23258H3.4856H3.01258C2.73643 9.23258 2.51258 9.45644 2.51258 9.73258V10.1588V11.6948C2.51258 11.7871 2.53813 11.8776 2.5864 11.9563L8.29721 21.2641C7.86725 22.8617 7.21223 24.1264 6.3483 25.0803C5.45203 26.0699 4.51048 26.518 3.51485 26.518C2.85343 26.518 2.27422 26.7656 1.80108 27.2387C1.32794 27.7118 1.08032 28.2911 1.08032 28.9525V30.887C1.08032 31.5632 1.32433 32.1517 1.80583 32.6206C2.27998 33.0822 2.85774 33.3215 3.51485 33.3215H22.8601C23.5172 33.3215 24.095 33.0822 24.5691 32.6206C25.0506 32.1517 25.2946 31.5632 25.2946 30.887V28.9525C25.2946 28.2911 25.047 27.7118 24.5739 27.2387C24.1007 26.7656 23.5215 26.518 22.8601 26.518C21.8644 26.518 20.9229 26.0699 20.0266 25.0803C19.6053 24.6151 19.105 23.6315 18.6928 22.6976C18.4923 22.2435 18.3213 21.8215 18.2002 21.5127Z" fill="#242424" stroke="black" stroke-linecap="round" stroke-linejoin="round"/>
<path d="M2.58301 29.9173C2.58301 28.8631 3.43758 28.0085 4.49174 28.0085H13.0787V31.826H4.49174C3.43758 31.826 2.58301 30.9714 2.58301 29.9173Z" fill="#4F4F4F"/>
<path d="M9.89668 21.156C9.33513 24.7994 6.92847 26.8296 6.92847 26.8296L11.0132 26.8296C11.0132 26.8296 12.9252 24.1643 13.246 21.156L9.89668 21.156Z" fill="#4F4F4F"/>
<path d="M4.48828 10.7605H13.2124V20.1198H9.73615L4.48828 11.6964V10.7605Z" fill="#4F4F4F"/>
<rect x="11.1401" y="8.88867" width="2.07241" height="0.869074" fill="#4F4F4F"/>
</svg>
