<svg width="27" height="34" viewBox="0 0 27 34" fill="none" xmlns="http://www.w3.org/2000/svg">
<path d="M3.67674 33.3215H23.0638C23.7365 33.3215 24.3245 33.086 24.7952 32.6163C25.266 32.1465 25.5025 31.5593 25.5025 30.887V28.9525C25.5025 28.295 25.2625 27.7171 24.7999 27.2431C24.3302 26.7617 23.7408 26.518 23.0638 26.518H22.8955C21.5392 26.443 20.3691 25.7807 19.3747 24.4514C18.4359 23.1965 17.8904 21.5977 17.7655 19.6266C18.2347 19.4323 18.6456 19.1478 18.9926 18.7734C19.396 18.3383 19.6864 17.8571 19.6864 17.3453C19.6864 17.087 19.5952 16.8414 19.4688 16.6208C19.3411 16.3978 19.161 16.1714 18.9422 15.9422C18.6039 15.5877 18.232 15.3071 17.8261 15.1085C18.1285 13.8364 18.6162 12.6897 19.2868 11.6643C20.0547 10.4899 20.6763 10.1072 21.1251 10.1072C21.7978 10.1072 22.3858 9.87171 22.8565 9.40197C23.3273 8.93218 23.5638 8.345 23.5638 7.67271V3.80366C23.5638 3.14621 23.3238 2.56833 22.8612 2.09426C22.3935 1.61491 21.81 1.36914 21.1402 1.36914C20.4707 1.36914 19.8848 1.61446 19.4087 2.08952C18.9347 2.56257 18.6864 3.14189 18.6864 3.80366V4.77093C18.6864 4.89505 18.6469 4.99583 18.5454 5.0971C18.4439 5.19838 18.3424 5.23819 18.217 5.23819C18.0916 5.23819 17.9901 5.19838 17.8886 5.0971C17.7871 4.99583 17.7477 4.89505 17.7477 4.77093V3.80366C17.7477 3.14621 17.5077 2.56833 17.0451 2.09426C16.5754 1.61288 15.986 1.36914 15.309 1.36914H11.4315C10.7693 1.36914 10.1893 1.61649 9.71523 2.08952C9.24116 2.56257 8.99285 3.14189 8.99285 3.80366V4.77093C8.99285 4.89505 8.95338 4.99583 8.8519 5.0971C8.75039 5.19838 8.64889 5.23819 8.52349 5.23819C8.39809 5.23819 8.29659 5.19838 8.19509 5.0971C8.09361 4.99583 8.05414 4.89505 8.05414 4.77093V3.80366C8.05414 3.14621 7.81419 2.56833 7.3516 2.09426C6.88385 1.61491 6.30042 1.36914 5.63059 1.36914C4.9611 1.36914 4.3752 1.61446 3.89912 2.08952C3.42505 2.56257 3.17674 3.14189 3.17674 3.80366V7.67271C3.17674 8.34931 3.42142 8.93791 3.90387 9.40665C4.37892 9.8682 4.95754 10.1072 5.61544 10.1072C6.06419 10.1072 6.68578 10.4899 7.45375 11.6643C8.12431 12.6897 8.61197 13.8364 8.91435 15.1085C8.50851 15.3071 8.13662 15.5877 7.79829 15.9422C7.57953 16.1714 7.39941 16.3978 7.27171 16.6208C7.14535 16.8415 7.05414 17.087 7.05414 17.3453C7.05414 17.8571 7.34447 18.3383 7.74786 18.7734C8.09488 19.1478 8.50578 19.4323 8.97502 19.6266C8.8501 21.5977 8.3046 23.1965 7.36582 24.4514C6.37141 25.7807 5.20134 26.443 3.84504 26.518H3.67674C3.01454 26.518 2.43447 26.7653 1.96042 27.2383C1.48635 27.7114 1.23804 28.2907 1.23804 28.9525V30.887C1.23804 31.5636 1.48272 32.1522 1.96517 32.6209C2.44022 33.0825 3.01884 33.3215 3.67674 33.3215Z" fill="#242424" stroke="black"/>
<path d="M3.40942 29.9173C3.40942 28.8631 4.26399 28.0085 5.31815 28.0085H13.3997V31.826H5.31815C4.26399 31.826 3.40942 30.9714 3.40942 29.9173Z" fill="#4F4F4F"/>
<path d="M10.723 19.282C10.723 24.0641 7.62109 26.8296 7.62109 26.8296L10.6562 26.8296C10.6562 26.8296 13.1698 24.766 13.4237 19.4157L10.723 19.282Z" fill="#4F4F4F"/>
<path d="M10.4057 15.1286C9.65992 11.4623 7.75464 9.75757 7.75464 9.75757L10.8632 9.75757C10.8632 9.75757 12.9357 11.8968 13.3475 14.7529L10.4057 15.1286Z" fill="#4F4F4F"/>
<path d="M8.48999 17.3274C8.48999 18.5795 13.3702 18.3816 13.3702 18.3816V15.7075C13.3702 15.7075 8.48999 16.0752 8.48999 17.3274Z" fill="#4F4F4F"/>
<path d="M4.81323 3.44019H6.3174V6.8162H10.7965V3.44019H13.3703V8.55435H4.81323V3.44019Z" fill="#4F4F4F"/>
</svg>
