<svg width="26" height="34" viewBox="0 0 26 34" fill="none" xmlns="http://www.w3.org/2000/svg">
<path d="M1.91097 32.3659C2.38084 32.8357 2.9679 33.0715 3.63985 33.0715H22.9851C23.657 33.0715 24.2441 32.8357 24.714 32.3659C25.1838 31.896 25.4196 31.3089 25.4196 30.637V28.7025C25.4196 28.0411 25.172 27.4618 24.6988 26.9887C24.2257 26.5156 23.6465 26.268 22.9851 26.268C21.6211 26.268 20.3939 25.5093 19.3121 23.7957C18.3005 22.1933 17.7479 20.129 17.6871 17.5735C18.4998 17.5031 19.2834 17.262 20.0345 16.8548C20.4725 16.6173 20.8331 16.3725 21.0905 16.1151C21.3435 15.8621 21.5506 15.5418 21.5506 15.1608C21.5506 14.7185 21.2725 14.3863 20.9526 14.1526C20.7623 14.0135 20.5283 13.8867 20.2573 13.7698C21.1175 12.4343 21.5506 10.9601 21.5506 9.35724C21.5506 7.0885 20.7421 5.13766 19.1371 3.53261C17.532 1.92756 15.5812 1.11914 13.3125 1.11914C11.0437 1.11914 9.09289 1.92756 7.48784 3.53261C5.88279 5.13766 5.07437 7.0885 5.07437 9.35724C5.07437 10.9601 5.50744 12.4343 6.36758 13.7698C6.0966 13.8867 5.86264 14.0135 5.67231 14.1526C5.35243 14.3863 5.07437 14.7185 5.07437 15.1608C5.07437 15.5418 5.28144 15.8621 5.53442 16.1151C5.79182 16.3725 6.15239 16.6173 6.59048 16.8548C7.34156 17.262 8.12517 17.5031 8.93779 17.5735C8.87703 20.129 8.32439 22.1933 7.31279 23.7957C6.23107 25.5093 5.00386 26.268 3.63985 26.268C2.9636 26.268 2.37511 26.512 1.90629 26.9935C1.44461 27.4676 1.20532 28.0454 1.20532 28.7025V30.637C1.20532 31.3089 1.4411 31.896 1.91097 32.3659Z" fill="#D0D0D0" stroke="black"/>
<path d="M13.3126 2.45923C9.56398 2.45923 6.52515 5.49806 6.52515 9.24664C6.52515 10.9044 7.11947 12.4234 8.10667 13.6021C8.10667 13.6021 7.45372 10.5953 8.86868 7.23474C10.2836 3.87419 13.3126 2.45923 13.3126 2.45923Z" fill="white"/>
<path d="M10.3509 17.089C10.77 23.0647 7.25562 26.3748 7.25562 26.3748L10.3509 26.3748C10.3509 26.3748 13.7317 23.0647 13.3126 17.089L10.3509 17.089Z" fill="white"/>
<path d="M6.45142 15.2048C6.45142 15.6094 9.98228 16.459 13.3126 16.128V14.6772C11.1271 14.3462 6.45142 14.8003 6.45142 15.2048Z" fill="white"/>
<path d="M2.94336 29.7342C2.94336 28.68 3.79793 27.8254 4.85209 27.8254H12.8287V31.6429H4.85209C3.79793 31.6429 2.94336 30.7883 2.94336 29.7342Z" fill="white"/>
<ellipse cx="19.5031" cy="9.30575" rx="0.773809" ry="1.59921" fill="white"/>
</svg>
