<svg width="29" height="34" viewBox="0 0 29 34" fill="none" xmlns="http://www.w3.org/2000/svg">
<path d="M27.5556 6.82759C27.6084 6.61634 27.5184 6.39519 27.3331 6.28083C27.1478 6.16647 26.9098 6.18519 26.7446 6.32712L22.1083 10.3114V3.06487C22.1083 2.84023 21.9585 2.64317 21.7421 2.58309C21.5256 2.523 21.2957 2.61464 21.1799 2.80713L17.3681 9.14353L14.8018 1.09229C14.7357 0.884929 14.5431 0.744141 14.3254 0.744141C14.1078 0.744141 13.9151 0.884929 13.849 1.09229L11.2827 9.14354L7.47096 2.80713C7.35516 2.61464 7.12521 2.523 6.90876 2.58309C6.69232 2.64317 6.54251 2.84023 6.54251 3.06487V10.3114L1.90621 6.32712C1.74105 6.18519 1.50304 6.16647 1.31773 6.28083C1.13242 6.39519 1.04244 6.61634 1.09525 6.82759L4.73671 21.3934L4.73667 21.3934L4.73824 21.3994C4.82601 21.7329 5.06413 21.997 5.33752 22.2062C5.61681 22.4199 5.98437 22.6159 6.42198 22.7999C7.15261 23.1071 8.0248 23.3369 9.03152 23.4953C8.61238 24.2997 8.10862 24.9267 7.5273 25.3904C6.81223 25.9608 6.04807 26.2343 5.22178 26.2343C4.59118 26.2343 4.03864 26.4707 3.58803 26.9213C3.13741 27.3719 2.90105 27.9245 2.90105 28.5551V30.3758C2.90105 31.02 3.13379 31.5816 3.59277 32.0285C4.0444 32.4682 4.59549 32.6965 5.22178 32.6965H23.4291C24.069 32.6965 24.6291 32.4717 25.077 32.0238C25.525 31.5758 25.7498 31.0157 25.7498 30.3758V28.5551C25.7498 27.9288 25.5215 27.3777 25.0817 26.9261C24.6348 26.4671 24.0733 26.2343 23.4291 26.2343C22.6028 26.2343 21.8386 25.9608 21.1235 25.3904C20.5414 24.9261 20.037 24.2979 19.6175 23.4918C20.5986 23.3301 21.4631 23.091 22.2054 22.7693C22.6489 22.5772 23.0181 22.3811 23.2971 22.1774C23.5638 21.9828 23.8145 21.7336 23.9087 21.4132C23.9107 21.4067 23.9125 21.4001 23.9141 21.3934L27.5556 6.82759Z" fill="#D0D0D0" stroke="black" stroke-linecap="round" stroke-linejoin="round"/>
<path d="M4.58862 29.2784C4.58862 28.2242 5.44319 27.3696 6.49735 27.3696H14.349V31.1871H6.49735C5.44319 31.1871 4.58862 30.3325 4.58862 29.2784Z" fill="white"/>
<path d="M11.14 23.0043C10.3378 25.5781 8.6665 26.5916 8.6665 26.5916L12.7513 26.5916C12.7513 26.5916 13.6135 25.6115 14.3556 23.0043L11.14 23.0043Z" fill="white"/>
<path d="M14.3491 21.6005V4.65356L11.7753 12.8095L8.19873 7.32764L7.66392 13.2774L3.61938 10.2691L6.42716 20.8985C6.42716 20.8985 8.92802 21.468 10.5385 21.6005C12.0347 21.7236 14.3491 21.6005 14.3491 21.6005Z" fill="white"/>
</svg>
