<svg width="28" height="34" viewBox="0 0 28 34" fill="none" xmlns="http://www.w3.org/2000/svg">
<path d="M4.0642 16.4219L4.06416 16.4219C3.64904 16.2243 3.30172 15.9044 3.06033 15.5063C2.81912 15.1084 2.69251 14.6473 2.69274 14.1786C2.69274 14.1785 2.69274 14.1784 2.69274 14.1783L2.69274 5.77642V5.77589H3.19274C3.1923 5.5827 3.22742 5.39131 3.2961 5.21268C3.36477 5.03404 3.46566 4.87166 3.59299 4.73481L4.0642 16.4219ZM4.0642 16.4219L6.38734 17.5279L6.38736 17.5279C6.67393 17.6644 6.98459 17.7385 7.30073 17.7449C7.61687 17.7513 7.93016 17.6898 8.22173 17.5649L8.22201 17.5648L8.95251 17.2513C9.28061 17.1107 9.5718 16.894 9.80593 16.62C10.04 16.3461 10.2114 16.0216 10.3097 15.6714L10.8368 13.7945C10.8388 13.7873 10.8407 13.7801 10.8424 13.7728C10.875 13.6329 10.935 13.5044 11.0165 13.3956C11.0979 13.2869 11.1983 13.201 11.3091 13.1417L11.3094 13.1415L11.8378 12.858V15.1046V15.1047C11.8379 15.5645 11.7183 16.0133 11.495 16.4003C11.2719 16.7871 10.9554 17.0949 10.5848 17.2934L10.5846 17.2936L7.31288 19.0481C6.46811 19.501 5.76257 20.1942 5.27155 21.0458C4.80564 21.8539 4.5491 22.7762 4.52441 23.7192C4.51856 23.728 4.51241 23.7372 4.50597 23.7467C4.44484 23.8375 4.35784 23.963 4.2549 24.1012C4.04171 24.3874 3.787 24.6911 3.56549 24.8693C3.37073 25.026 3.09158 25.1725 2.77314 25.3015C1.74589 25.7175 0.863037 26.6728 0.863037 27.8965V30.1965C0.863037 31.5772 1.98232 32.6965 3.36304 32.6965H24.9788C26.3595 32.6965 27.4788 31.5772 27.4788 30.1965V27.5148C27.4788 26.2278 26.5031 25.2641 25.4492 24.8404C25.1133 24.7053 24.8382 24.5464 24.6646 24.3722C24.4205 24.1274 24.2008 23.6817 24.0358 23.2389C23.957 23.0276 23.897 22.8345 23.8567 22.6943C23.8366 22.6245 23.8216 22.5683 23.8117 22.5304C23.8116 22.5299 23.8115 22.5295 23.8114 22.5291V13.0022C23.8114 6.26778 18.7068 0.744141 12.3378 0.744141H3.87888C3.55279 0.744141 3.24762 0.883194 3.02824 1.11816C2.81001 1.35189 2.69281 1.66197 2.69274 1.97873L4.0642 16.4219ZM2.84218 2.65506L3.5117 4.08922L3.19274 1.97902C3.19265 2.14018 3.22769 2.29913 3.29509 2.44322L2.84203 2.65472L2.84212 2.65493C2.84214 2.65497 2.84216 2.65501 2.84218 2.65506Z" fill="#D0D0D0" stroke="black" stroke-linejoin="round"/>
<path d="M2.76685 29.0245C2.76685 27.9703 3.62141 27.1157 4.67558 27.1157H14.0942V30.9332H4.67558C3.62141 30.9332 2.76685 30.0786 2.76685 29.0245Z" fill="white"/>
<path d="M6.04275 25.879C5.00655 20.3303 11.5432 18.7593 11.5432 18.7593C11.5432 18.7593 10.5178 21.422 10.3213 22.7035C10.0906 24.2077 10.4215 25.879 10.4215 25.879H6.04275Z" fill="white"/>
<path d="M7.17919 2.11328H4.104L4.90623 3.58402L7.17919 2.11328Z" fill="white"/>
<path d="M20.2153 8.16332C22.1064 12.7042 22.5552 22.0351 22.5552 22.0351C22.5552 22.0351 23.4577 15.0825 21.8866 9.13267C20.3156 3.18286 14.4995 2.41406 14.4995 2.41406C14.4995 2.41406 18.544 4.15023 20.2153 8.16332Z" fill="white"/>
<path d="M9.31836 11.0713C10.0712 10.4427 10.8006 10.558 11.5579 9.9348C12.6542 9.03276 13.4966 6.85962 13.4966 6.85962C13.4966 6.85962 13.7151 10.2167 12.2933 11.3387C11.6595 11.8388 11.0225 11.6418 10.388 12.1409C9.16665 13.1016 8.95068 15.8512 8.95068 15.8512L8.31559 16.4194L7.41309 16.4529C7.41309 16.4529 7.60706 12.5002 9.31836 11.0713Z" fill="white"/>
<path d="M4.30452 5.79009C4.61918 5.06037 5.67498 4.28592 5.67498 4.28592L8.78359 2.04639C8.78359 2.04639 6.2848 3.98462 5.87553 5.79009C5.66198 6.73215 5.87553 8.2636 5.87553 8.2636C5.87553 8.2636 5.43447 8.66471 5.09003 8.66471C4.74559 8.66471 4.30452 8.2636 4.30452 8.2636C4.30452 8.2636 3.92203 6.6771 4.30452 5.79009Z" fill="white"/>
</svg>
