<svg width="27" height="34" viewBox="0 0 27 34" fill="none" xmlns="http://www.w3.org/2000/svg">
<path d="M18.4413 20.6511C19.2892 20.4815 19.9972 20.2719 20.5545 20.0161C20.888 19.863 21.1764 19.688 21.388 19.4798C21.6039 19.2675 21.7678 18.9906 21.7678 18.6549C21.7678 18.1622 21.4351 17.8039 21.0585 17.5567C20.8118 17.3948 20.5014 17.2492 20.136 17.1165C21.2178 15.4865 21.7678 13.7398 21.7678 11.884C21.7678 9.30746 20.7711 7.75049 19.7433 6.27792C19.6562 6.15313 19.5171 6.0748 19.3652 6.0651C19.2133 6.0554 19.0653 6.11538 18.9631 6.22808L15.6009 9.93313H14.1902L18.4912 5.28658C18.6605 5.10369 18.6692 4.82407 18.5117 4.63094C17.6485 3.57242 16.7693 2.67138 15.8733 1.93162C15.4249 1.56145 15.0107 1.27079 14.6329 1.07059C14.2609 0.873488 13.8872 0.744141 13.5297 0.744141C13.1723 0.744141 12.7986 0.873488 12.4266 1.07059C12.0488 1.27079 11.6346 1.56145 11.1862 1.93162C10.2902 2.67138 9.41103 3.57242 8.54778 4.63094C7.67519 5.70089 6.91916 6.89794 6.2787 8.22019C5.63405 9.55107 5.29166 10.776 5.29166 11.884C5.29166 13.7398 5.84166 15.4865 6.92347 17.1165C6.55805 17.2492 6.24769 17.3948 6.00096 17.5567C5.62437 17.8039 5.29166 18.1622 5.29166 18.6549C5.29166 18.9906 5.45562 19.2675 5.67152 19.4798C5.88311 19.688 6.1715 19.863 6.50499 20.0161C7.06227 20.2719 7.77034 20.4815 8.61815 20.6511C8.18723 22.1883 7.55737 23.4236 6.74201 24.3748C5.84602 25.4202 4.88736 25.893 3.85713 25.893C3.19571 25.893 2.6165 26.1406 2.14337 26.6137C1.67023 27.0868 1.42261 27.6661 1.42261 28.3275V30.262C1.42261 30.9382 1.66661 31.5267 2.14811 31.9956C2.62226 32.4572 3.20002 32.6965 3.85713 32.6965H23.2024C23.8743 32.6965 24.4614 32.4607 24.9312 31.9909C25.4011 31.521 25.6369 30.9339 25.6369 30.262V28.3275C25.6369 27.6704 25.3976 27.0926 24.9359 26.6185C24.4671 26.137 23.8786 25.893 23.2024 25.893C22.1721 25.893 21.2135 25.4202 20.3175 24.3748C19.5021 23.4236 18.8723 22.1883 18.4413 20.6511Z" fill="#D0D0D0" stroke="black" stroke-linejoin="round"/>
<path d="M13.6884 2.54785C10.3793 4.15229 6.73584 8.62844 6.73584 12.377C6.73584 14.0348 7.45123 15.9763 8.44056 17.155H11.2818C11.2818 17.155 9.20936 13.4447 9.34306 10.169C9.47676 6.89322 13.6884 2.54785 13.6884 2.54785Z" fill="white"/>
<path d="M6.80273 18.6409C6.80273 19.5641 10.7706 19.7625 13.6787 19.5641L13.6119 18.1133C11.4216 17.7823 6.80273 17.7177 6.80273 18.6409Z" fill="white"/>
<path d="M3.12598 29.2923C3.12598 28.2381 3.98054 27.3835 5.03471 27.3835H13.6217V31.201H5.03471C3.98054 31.201 3.12598 30.3464 3.12598 29.2923Z" fill="white"/>
<path d="M10.239 20.1967C9.67746 23.8402 7.33765 26.2046 7.33765 26.2046L11.4224 26.2046C11.4224 26.2046 13.2675 23.3388 13.5883 20.3305L10.239 20.1967Z" fill="white"/>
</svg>
