<svg width="27" height="34" viewBox="0 0 27 34" fill="none" xmlns="http://www.w3.org/2000/svg">
<path d="M3.67674 32.6965H23.0638C23.7365 32.6965 24.3245 32.461 24.7952 31.9913C25.266 31.5215 25.5025 30.9343 25.5025 30.262V28.3275C25.5025 27.67 25.2625 27.0921 24.7999 26.6181C24.3302 26.1367 23.7408 25.893 23.0638 25.893H22.8955C21.5392 25.818 20.3691 25.1557 19.3747 23.8264C18.4359 22.5715 17.8904 20.9727 17.7655 19.0016C18.2347 18.8073 18.6456 18.5228 18.9926 18.1484C19.396 17.7133 19.6864 17.2321 19.6864 16.7203C19.6864 16.462 19.5952 16.2164 19.4688 15.9958C19.3411 15.7728 19.161 15.5464 18.9422 15.3172C18.6039 14.9627 18.232 14.6821 17.8261 14.4835C18.1285 13.2114 18.6162 12.0647 19.2868 11.0393C20.0547 9.86493 20.6763 9.48224 21.1251 9.48224C21.7978 9.48224 22.3858 9.24671 22.8565 8.77697C23.3273 8.30718 23.5638 7.72 23.5638 7.04771V3.17866C23.5638 2.52121 23.3238 1.94333 22.8612 1.46926C22.3935 0.98991 21.81 0.744141 21.1402 0.744141C20.4707 0.744141 19.8848 0.98946 19.4087 1.46452C18.9347 1.93757 18.6864 2.51689 18.6864 3.17866V4.14593C18.6864 4.27005 18.6469 4.37083 18.5454 4.4721C18.4439 4.57338 18.3424 4.61319 18.217 4.61319C18.0916 4.61319 17.9901 4.57338 17.8886 4.4721C17.7871 4.37083 17.7477 4.27005 17.7477 4.14593V3.17866C17.7477 2.52121 17.5077 1.94333 17.0451 1.46926C16.5754 0.98788 15.986 0.744141 15.309 0.744141H11.4315C10.7693 0.744141 10.1893 0.99149 9.71523 1.46452C9.24116 1.93757 8.99285 2.51689 8.99285 3.17866V4.14593C8.99285 4.27005 8.95338 4.37083 8.8519 4.4721C8.75039 4.57338 8.64889 4.61319 8.52349 4.61319C8.39809 4.61319 8.29659 4.57338 8.19509 4.4721C8.09361 4.37083 8.05414 4.27005 8.05414 4.14593V3.17866C8.05414 2.52121 7.81419 1.94333 7.3516 1.46926C6.88385 0.98991 6.30042 0.744141 5.63059 0.744141C4.9611 0.744141 4.3752 0.98946 3.89912 1.46452C3.42505 1.93757 3.17674 2.51689 3.17674 3.17866V7.04771C3.17674 7.72431 3.42142 8.31291 3.90387 8.78165C4.37892 9.2432 4.95754 9.48224 5.61544 9.48224C6.06419 9.48224 6.68578 9.86493 7.45375 11.0393C8.12431 12.0647 8.61197 13.2114 8.91435 14.4835C8.50851 14.6821 8.13662 14.9627 7.79829 15.3172C7.57953 15.5464 7.39941 15.7728 7.27171 15.9958C7.14535 16.2165 7.05414 16.462 7.05414 16.7203C7.05414 17.2321 7.34447 17.7133 7.74786 18.1484C8.09488 18.5228 8.50578 18.8073 8.97502 19.0016C8.8501 20.9727 8.3046 22.5715 7.36582 23.8264C6.37141 25.1557 5.20134 25.818 3.84504 25.893H3.67674C3.01454 25.893 2.43447 26.1403 1.96042 26.6133C1.48635 27.0864 1.23804 27.6657 1.23804 28.3275V30.262C1.23804 30.9386 1.48272 31.5272 1.96517 31.9959C2.44022 32.4575 3.01884 32.6965 3.67674 32.6965Z" fill="#D0D0D0" stroke="black"/>
<path d="M3.40942 29.2923C3.40942 28.2381 4.26399 27.3835 5.31815 27.3835H13.3997V31.201H5.31815C4.26399 31.201 3.40942 30.3464 3.40942 29.2923Z" fill="white"/>
<path d="M10.723 18.657C10.723 23.4391 7.62109 26.2046 7.62109 26.2046L10.6562 26.2046C10.6562 26.2046 13.1698 24.141 13.4237 18.7907L10.723 18.657Z" fill="white"/>
<path d="M10.4057 14.5036C9.65992 10.8373 7.75464 9.13257 7.75464 9.13257L10.8632 9.13257C10.8632 9.13257 12.9357 11.2718 13.3475 14.1279L10.4057 14.5036Z" fill="white"/>
<path d="M8.48999 16.7024C8.48999 17.9545 13.3702 17.7566 13.3702 17.7566V15.0825C13.3702 15.0825 8.48999 15.4502 8.48999 16.7024Z" fill="white"/>
<path d="M4.81323 2.81519H6.3174V6.1912H10.7965V2.81519H13.3703V7.92935H4.81323V2.81519Z" fill="white"/>
</svg>
