<svg width="26" height="34" viewBox="0 0 26 34" fill="none" xmlns="http://www.w3.org/2000/svg">
<path d="M17.7925 20.8877C17.7508 20.7812 17.7151 20.6884 17.6862 20.6126L23.3808 11.3313C23.4291 11.2526 23.4546 11.1621 23.4546 11.0698V9.10758C23.4546 8.83144 23.2308 8.60758 22.9546 8.60758H16.2954V7.62796C16.2954 7.35182 16.0715 7.12796 15.7954 7.12796H14.5458V5.95163H15.7954C16.0715 5.95163 16.2954 5.72777 16.2954 5.45163V3.28312C16.2954 3.00698 16.0715 2.78312 15.7954 2.78312H14.5458V1.24414C14.5458 0.967998 14.3219 0.744141 14.0458 0.744141H11.5137C11.2376 0.744141 11.0137 0.967998 11.0137 1.24414V2.78312H9.76411C9.48797 2.78312 9.26411 3.00698 9.26411 3.28312V5.45163C9.26411 5.72777 9.48797 5.95163 9.76411 5.95163H11.0137V7.12796H9.76411C9.48797 7.12796 9.26411 7.35182 9.26411 7.62796V8.60758H3.07788H2.60486C2.32872 8.60758 2.10486 8.83144 2.10486 9.10758V9.53376V11.0698C2.10486 11.1621 2.13041 11.2526 2.17868 11.3313L7.88949 20.6391C7.45954 22.2367 6.80451 23.5014 5.94058 24.4553C5.04431 25.4449 4.10277 25.893 3.10713 25.893C2.44571 25.893 1.8665 26.1406 1.39337 26.6137C0.920229 27.0868 0.672607 27.6661 0.672607 28.3275V30.262C0.672607 30.9382 0.916612 31.5267 1.39811 31.9956C1.87226 32.4572 2.45002 32.6965 3.10713 32.6965H22.4524C23.1095 32.6965 23.6872 32.4572 24.1614 31.9956C24.6429 31.5267 24.8869 30.9382 24.8869 30.262V28.3275C24.8869 27.6661 24.6393 27.0868 24.1661 26.6137C23.693 26.1406 23.1138 25.893 22.4524 25.893C21.4567 25.893 20.5152 25.4449 19.6189 24.4553C19.1976 23.9901 18.6973 23.0065 18.2851 22.0726C18.0846 21.6185 17.9135 21.1965 17.7925 20.8877Z" fill="#D0D0D0" stroke="black" stroke-linecap="round" stroke-linejoin="round"/>
<path d="M2.17529 29.2923C2.17529 28.2381 3.02986 27.3835 4.08402 27.3835H12.671V31.201H4.08402C3.02986 31.201 2.17529 30.3464 2.17529 29.2923Z" fill="white"/>
<path d="M9.48897 20.531C8.92742 24.1744 6.52075 26.2046 6.52075 26.2046L10.6055 26.2046C10.6055 26.2046 12.5175 23.5393 12.8382 20.531L9.48897 20.531Z" fill="white"/>
<path d="M4.08057 10.1355H12.8047V19.4948H9.32843L4.08057 11.0714V10.1355Z" fill="white"/>
<rect x="10.7324" y="8.26367" width="2.07241" height="0.869074" fill="white"/>
</svg>
